<?xml version="1.0" encoding="utf-8"?>
<!-- Generator: Adobe Illustrator 26.0.2, SVG Export Plug-In . SVG Version: 6.00 Build 0)  -->
<svg version="1.1" id="Layer_1" xmlns="http://www.w3.org/2000/svg" xmlns:xlink="http://www.w3.org/1999/xlink" x="0px" y="0px"
	 viewBox="0 0 1920 1080" style="enable-background:new 0 0 1920 1080;" xml:space="preserve">
<style type="text/css">
	.st0{fill:#6EEC64;}
	.st1{fill:#3FC208;}
</style>
<g>
	<path class="st0" d="M782.74,734.5c-15.12,0-27.43-12.3-27.43-27.43V288.99c0-15.12,12.3-27.43,27.43-27.43h420.34
		c15.12,0,27.43,12.3,27.43,27.43v418.08c0,15.12-12.3,27.43-27.43,27.43H782.74z"/>
	<path class="st0" d="M1203.07,262.07c14.85,0,26.93,12.08,26.93,26.93v418.08c0,14.85-12.08,26.93-26.93,26.93H782.74
		c-14.85,0-26.93-12.08-26.93-26.93V288.99c0-14.85,12.08-26.93,26.93-26.93H1203.07 M1203.07,261.07H782.74
		c-15.42,0-27.93,12.5-27.93,27.93v418.08c0,15.42,12.5,27.93,27.93,27.93h420.34c15.42,0,27.93-12.5,27.93-27.93V288.99
		C1231,273.57,1218.5,261.07,1203.07,261.07L1203.07,261.07z"/>
</g>
<g>
	<path class="st1" d="M758.93,708.43c-15.12,0-27.43-12.3-27.43-27.43V262.93c0-15.12,12.3-27.43,27.43-27.43h420.34
		c15.12,0,27.43,12.3,27.43,27.43v418.08c0,15.12-12.3,27.43-27.43,27.43H758.93z"/>
	<path class="st1" d="M1179.26,236c14.85,0,26.93,12.08,26.93,26.93v418.08c0,14.85-12.08,26.93-26.93,26.93H758.93
		c-14.85,0-26.93-12.08-26.93-26.93V262.93c0-14.85,12.08-26.93,26.93-26.93H1179.26 M1179.26,235H758.93
		C743.5,235,731,247.5,731,262.93v418.08c0,15.42,12.5,27.93,27.93,27.93h420.34c15.42,0,27.93-12.5,27.93-27.93V262.93
		C1207.19,247.5,1194.69,235,1179.26,235L1179.26,235z"/>
</g>
</svg>
